<svg width="81" height="92" viewBox="0 0 81 92" fill="none" xmlns="http://www.w3.org/2000/svg">
<path fill-rule="evenodd" clip-rule="evenodd" d="M20.4668 55.1339C26.7796 60.053 37.4452 56.9206 44.2892 48.1375C51.1331 39.3545 51.5637 28.2467 45.2509 23.3276C38.938 18.4085 28.2724 21.5409 21.4284 30.3239C14.5845 39.107 14.1539 50.2148 20.4668 55.1339ZM26.5315 51.61C33.4758 55.2748 42.0167 52.7288 45.6083 45.9234C49.1998 39.118 46.4818 30.6302 39.5375 26.9654C32.5932 23.3006 24.0523 25.8465 20.4607 32.6519C16.8692 39.4573 19.5872 47.9451 26.5315 51.61Z" fill="white"/>
<path fill-rule="evenodd" clip-rule="evenodd" d="M30.7071 37.8472C24.3218 42.6718 24.5869 53.7848 31.2994 62.6687C38.0118 71.5527 48.6297 74.8435 55.015 70.0189C61.4004 65.1944 61.1352 54.0814 54.4228 45.1974C47.7103 36.3135 37.0925 33.0227 30.7071 37.8472ZM32.5413 44.6174C27.204 50.3765 27.4527 59.2854 33.0966 64.5159C38.7406 69.7464 47.6426 69.3179 52.9799 63.5587C58.3172 57.7996 58.0685 48.8907 52.4246 43.6602C46.7806 38.4297 37.8786 38.8582 32.5413 44.6174Z" fill="white"/>
</svg>
